<svg width="311" height="113" viewBox="0 0 311 113" fill="none" xmlns="http://www.w3.org/2000/svg">
<g filter="url(#filter0_d_131_2275)">
<path d="M247.112 102.014C237.129 102.014 228.894 98.0093 223.605 90.7957C213.599 98.0687 202.945 102.014 193.034 102.014C183.122 102.014 174.816 98.0093 169.527 90.7957C159.521 98.0687 148.867 102.014 138.955 102.014C129.044 102.014 120.737 98.0093 115.449 90.7957C105.443 98.0687 94.7885 102.014 84.8772 102.014C74.9659 102.014 66.659 98.0093 61.3706 90.7957C51.3643 98.0687 40.7102 102.014 30.799 102.014C20.8877 102.014 12.1589 97.8013 6.83482 90.148C-0.218356 80.011 -0.907629 65.1737 4.93337 49.4393C15.017 22.2784 40.9123 1 63.8841 1C73.8667 1 82.1023 5.00492 87.3907 12.2185C97.397 4.93955 108.051 1 117.962 1C127.874 1 136.181 5.00492 141.469 12.2185C151.475 4.93955 162.129 1 172.047 1C181.964 1 190.265 5.00492 195.553 12.2185C205.554 4.93955 216.214 1 226.125 1C236.036 1 244.343 5.00492 249.631 12.2185C259.632 4.93955 270.292 1 280.203 1C290.114 1 298.843 5.21289 304.167 12.8662C311.214 23.0033 311.91 37.8405 306.069 53.5749C295.985 80.7359 270.09 102.014 247.118 102.014H247.112Z" fill="white"/>
<path d="M247.112 102.014C237.129 102.014 228.894 98.0093 223.605 90.7957C213.599 98.0687 202.945 102.014 193.034 102.014C183.122 102.014 174.816 98.0093 169.527 90.7957C159.521 98.0687 148.867 102.014 138.955 102.014C129.044 102.014 120.737 98.0093 115.449 90.7957C105.443 98.0687 94.7885 102.014 84.8772 102.014C74.9659 102.014 66.659 98.0093 61.3706 90.7957C51.3643 98.0687 40.7102 102.014 30.799 102.014C20.8877 102.014 12.1589 97.8013 6.83482 90.148C-0.218356 80.011 -0.907629 65.1737 4.93337 49.4393C15.017 22.2784 40.9123 1 63.8841 1C73.8667 1 82.1023 5.00492 87.3907 12.2185C97.397 4.93955 108.051 1 117.962 1C127.874 1 136.181 5.00492 141.469 12.2185C151.475 4.93955 162.129 1 172.047 1C181.964 1 190.265 5.00492 195.553 12.2185C205.554 4.93955 216.214 1 226.125 1C236.036 1 244.343 5.00492 249.631 12.2185C259.632 4.93955 270.292 1 280.203 1C290.114 1 298.843 5.21289 304.167 12.8662C311.214 23.0033 311.91 37.8405 306.069 53.5749C295.985 80.7359 270.09 102.014 247.118 102.014H247.112Z" stroke="black" stroke-linecap="round" stroke-linejoin="round"/>
</g>
<path d="M280.203 6.94202C269.513 6.94202 257.843 12.4562 247.849 21.2563C244.385 12.4562 236.814 6.94202 226.125 6.94202C215.435 6.94202 203.765 12.4562 193.771 21.2563C190.306 12.4562 182.736 6.94202 172.047 6.94202C161.357 6.94202 149.687 12.4562 139.692 21.2563C136.228 12.4562 128.658 6.94202 117.968 6.94202C107.279 6.94202 95.6084 12.4562 85.614 21.2563C82.1498 12.4562 74.5797 6.94202 63.89 6.94202C43.5445 6.94202 19.6457 26.8953 10.5069 51.5071C1.3681 76.1189 10.4534 96.0722 30.7989 96.0722C41.4886 96.0722 53.1587 90.558 63.1532 81.7579C66.6174 90.558 74.1875 96.0722 84.8772 96.0722C95.5668 96.0722 107.237 90.558 117.231 81.7579C120.696 90.558 128.266 96.0722 138.955 96.0722C149.645 96.0722 161.315 90.558 171.31 81.7579C174.774 90.558 182.344 96.0722 193.034 96.0722C203.723 96.0722 215.394 90.558 225.388 81.7579C228.852 90.558 236.422 96.0722 247.112 96.0722C267.457 96.0722 291.356 76.1189 300.495 51.5071C309.634 26.8953 300.549 6.94202 280.203 6.94202Z" fill="#0EB57B" stroke="black" stroke-linecap="round" stroke-linejoin="round"/>
<defs>
<filter id="filter0_d_131_2275" x="0.500122" y="0.5" width="310" height="112.014" filterUnits="userSpaceOnUse" color-interpolation-filters="sRGB">
<feFlood flood-opacity="0" result="BackgroundImageFix"/>
<feColorMatrix in="SourceAlpha" type="matrix" values="0 0 0 0 0 0 0 0 0 0 0 0 0 0 0 0 0 0 127 0" result="hardAlpha"/>
<feOffset dy="10"/>
<feComposite in2="hardAlpha" operator="out"/>
<feColorMatrix type="matrix" values="0 0 0 0 0 0 0 0 0 0 0 0 0 0 0 0 0 0 0.12 0"/>
<feBlend mode="normal" in2="BackgroundImageFix" result="effect1_dropShadow_131_2275"/>
<feBlend mode="normal" in="SourceGraphic" in2="effect1_dropShadow_131_2275" result="shape"/>
</filter>
</defs>
</svg>
