<svg width="140" height="140" viewBox="0 0 140 140" fill="none" xmlns="http://www.w3.org/2000/svg">
<path d="M115.63 1H24.6919C21.1662 1 17.8603 2.7579 15.8927 5.68429L3.88751 23.4823C2.1097 26.1091 1.16089 29.2153 1.16089 32.3814V128.383C1.16089 134.246 5.91504 139 11.7778 139H128.544C134.407 139 139.161 134.246 139.161 128.383V32.3814C139.161 29.2053 138.212 26.1091 136.434 23.4823L124.429 5.68429C122.451 2.7579 119.156 1 115.63 1Z" fill="#D9D3CE" stroke="black" stroke-linecap="round" stroke-linejoin="round"/>
<path d="M33.3413 1H24.6919C21.1662 1 17.8603 2.7579 15.8927 5.68429L3.88751 23.4823C2.1097 26.1091 1.16089 29.2153 1.16089 32.3814V128.383C1.16089 134.246 5.91504 139 11.7778 139H33.3313V1.01L33.3413 1Z" fill="#C9C2B7" stroke="black" stroke-linecap="round" stroke-linejoin="round"/>
<path d="M117.258 109.267H23.0839C20.3673 109.267 17.8204 110.565 16.2224 112.752L3.84761 129.721C2.47929 131.589 2.62908 134.206 4.25708 135.844C6.17472 137.781 8.84147 138.98 11.7878 138.98H128.554C131.5 138.98 134.157 137.781 136.085 135.844C137.713 134.206 137.863 131.589 136.494 129.721L124.119 112.752C122.521 110.555 119.975 109.267 117.258 109.267Z" fill="#BFB7AC" stroke="black" stroke-linecap="round" stroke-linejoin="round"/>
<path d="M115.979 1H24.3622C19.7618 1 16.0325 4.72944 16.0325 9.32982V100.947C16.0325 105.547 19.7618 109.277 24.3622 109.277H115.979C120.58 109.277 124.309 105.547 124.309 100.947V9.32982C124.309 4.72944 120.58 1 115.979 1Z" fill="#F0E9E4" stroke="black" stroke-linecap="round" stroke-linejoin="round"/>
</svg>
