<svg width="370" height="364" viewBox="0 0 370 364" fill="none" xmlns="http://www.w3.org/2000/svg">
<path d="M321.013 153.132H305.737L305.627 191.541H321.013C331.324 191.541 339.689 183.193 339.689 172.902V171.771C339.689 161.48 331.324 153.132 321.013 153.132Z" fill="#FEACB3" stroke="black" stroke-linecap="round" stroke-linejoin="round"/>
<g style="mix-blend-mode:overlay" opacity="0.4">
<path d="M328.826 157.987C333.641 160.71 336.891 165.875 336.891 171.781" stroke="white" stroke-linecap="round" stroke-linejoin="round"/>
</g>
<g style="mix-blend-mode:overlay" opacity="0.4">
<path d="M321.013 155.935C323.009 155.935 324.914 156.305 326.67 156.976" stroke="white" stroke-linecap="round" stroke-linejoin="round"/>
</g>
<path d="M312.989 163.983H319.639C324.132 163.983 327.773 167.617 327.773 172.101V172.592C327.773 177.076 324.132 180.71 319.639 180.71H312.939" fill="#FCA4AB"/>
<path d="M312.989 163.983H319.639C324.132 163.983 327.773 167.617 327.773 172.101V172.592C327.773 177.076 324.132 180.71 319.639 180.71H312.939" stroke="black" stroke-linecap="round" stroke-linejoin="round"/>
<path d="M312.387 154.713L313.32 87.4237V78.104C313.32 52.3674 292.417 31.5058 266.63 31.5058H95.7367C69.859 31.5058 48.9161 52.5176 49.0465 78.3443L49.1368 81.3374C49.1368 227.829 40.9422 254.977 199.939 254.977C339.197 254.977 325.185 189.459 312.387 154.713Z" fill="#FEACB3"/>
<g style="mix-blend-mode:multiply" opacity="0.2">
<path d="M212.206 233.985C68.1739 233.985 75.6062 206.837 75.6062 60.3457L75.526 57.3526C75.4859 48.7837 77.5521 40.7454 81.183 33.8282C62.4467 39.9646 48.9462 57.6028 49.0565 78.3543L49.1468 81.3474C49.1468 227.839 40.9522 254.987 199.949 254.987C306.008 254.987 323.169 216.988 319.669 183.513C313.942 210.091 288.395 233.995 212.216 233.995L212.206 233.985Z" fill="#FE969F"/>
</g>
<path d="M312.387 154.713L313.32 87.4237V78.104C313.32 52.3674 292.417 31.5058 266.63 31.5058H95.7367C69.859 31.5058 48.9161 52.5176 49.0465 78.3443L49.1368 81.3374C49.1368 227.829 40.9422 254.977 199.939 254.977C339.197 254.977 325.185 189.459 312.387 154.713Z" stroke="black" stroke-linecap="round" stroke-linejoin="round"/>
<path d="M98.3144 191.551H81.0626C70.7516 191.551 62.3865 183.203 62.3865 172.912V171.781C62.3865 161.49 70.7516 153.142 81.0626 153.142H98.3144" fill="#FEACB3"/>
<path d="M98.3144 191.551H81.0626C70.7517 191.551 62.3865 183.203 62.3865 172.912V171.781C62.3865 161.49 70.7517 153.142 81.0626 153.142H98.3144" stroke="black" stroke-linecap="round" stroke-linejoin="round"/>
<g style="mix-blend-mode:multiply" opacity="0.4">
<path style="mix-blend-mode:multiply" opacity="0.6" d="M87.0004 180.71H82.4467C77.9532 180.71 74.3123 177.076 74.3123 172.592V172.101C74.3123 167.617 77.9532 163.983 82.4467 163.983H87.0004" fill="url(#paint0_linear_3_31)"/>
</g>
<g style="mix-blend-mode:multiply">
<path d="M91.6644 180.71H82.4367C77.9432 180.71 74.3023 177.076 74.3023 172.592V172.101C74.3023 167.617 77.9432 163.983 82.4367 163.983H86.529" stroke="black" stroke-linecap="round" stroke-linejoin="round"/>
</g>
<path d="M92.5471 371.668V307.772C92.5471 293.607 104.052 282.115 118.254 282.115H223.611C237.803 282.115 249.318 293.597 249.318 307.772V371.668" fill="#FEACB3"/>
<path d="M92.5471 371.668V307.772C92.5471 293.607 104.052 282.115 118.254 282.115H223.611C237.803 282.115 249.318 293.597 249.318 307.772V371.668" stroke="black" stroke-linecap="round" stroke-linejoin="round"/>
<path d="M288.646 323.948V371.668H308.997V323.948" fill="#FEACB3"/>
<path d="M288.646 323.948V371.668H308.997V323.948" stroke="black" stroke-linecap="round" stroke-linejoin="round"/>
<path d="M308.836 325.05C313.701 318.583 317.372 310.094 309.689 309.554C305.546 309.263 289.889 323.588 289.889 323.588" fill="#FEACB3"/>
<path d="M308.836 325.05C313.701 318.583 317.372 310.094 309.689 309.554C305.546 309.263 289.889 323.588 289.889 323.588" stroke="black" stroke-linecap="round" stroke-linejoin="round"/>
<path d="M289.88 325.961C285.647 324.129 286.058 320.465 284.764 310.505C283.992 304.598 282.437 296.971 286.499 296.49C290.241 296.05 291.986 309.263 291.986 309.263C293.45 305.139 302.848 305.69 303.962 309.003C303.962 309.003 303.53 291.645 308.776 292.406C311.434 292.796 311.685 295.829 310.2 317.432" fill="#FEACB3"/>
<path d="M289.88 325.961C285.647 324.129 286.058 320.465 284.764 310.505C283.992 304.598 282.437 296.971 286.499 296.49C290.241 296.05 291.986 309.263 291.986 309.263C293.45 305.139 302.848 305.69 303.962 309.003C303.962 309.003 303.53 291.645 308.776 292.406C311.434 292.796 311.685 295.829 310.2 317.432" stroke="black" stroke-linecap="round" stroke-linejoin="round"/>
<path d="M111.554 316.05L114.543 321.946" stroke="black" stroke-linecap="round" stroke-linejoin="round"/>
<path d="M140.14 311.446V371.668H114.543V311.446" fill="#FEACB3"/>
<path d="M140.14 311.446V371.668H114.543V311.446" stroke="black" stroke-linecap="round" stroke-linejoin="round"/>
<path d="M165.466 350.856H168.575" stroke="black" stroke-linecap="round" stroke-linejoin="round"/>
<path d="M228.646 350.856H231.755" stroke="black" stroke-linecap="round" stroke-linejoin="round"/>
<path d="M343.851 97.9045H315.887V149.108H343.851V97.9045Z" fill="#F5C798" stroke="black" stroke-linecap="round" stroke-linejoin="round"/>
<path d="M49.3574 149.108H26.5891V154.183C26.5891 174.143 38.0334 191.431 54.7336 199.88C51.2531 186.316 49.879 169.609 49.3574 149.108Z" fill="#FFDBBD" stroke="black" stroke-linecap="round" stroke-linejoin="round"/>
<path d="M46.0275 184.684C46.0275 184.684 52.5671 178.258 62.4668 174.684C62.4167 174.103 62.3765 173.513 62.3765 172.912V171.781C62.3765 162.151 69.6985 154.223 79.0967 153.242V149.108H101.253V152.431C101.253 158.808 106.439 163.983 112.828 163.983C119.217 163.983 124.403 158.808 124.403 152.431V133.371H40.0094" fill="#FFDBBD"/>
<path opacity="0.7" d="M26.5891 149.108V154.183C26.5891 161.43 28.1036 168.327 30.8318 174.574C35.9773 166.115 45.2852 160.469 55.9272 160.469H66.2281C69.2672 156.495 73.871 153.782 79.1168 153.242V149.108" fill="#F5C798"/>
<path d="M26.5891 149.108V154.183C26.5891 174.143 38.0334 191.431 54.7336 199.88" stroke="black" stroke-linecap="round" stroke-linejoin="round"/>
<path d="M46.0275 184.684C46.0275 184.684 52.5671 178.258 62.4668 174.684C62.4167 174.103 62.3765 173.513 62.3765 172.912V171.781C62.3765 162.151 69.6985 154.223 79.0967 153.242V149.108H101.253V152.431C101.253 158.808 106.439 163.983 112.828 163.983C119.217 163.983 124.403 158.808 124.403 152.431V133.371H40.0094" stroke="black" stroke-linecap="round" stroke-linejoin="round"/>
<path d="M332.989 69.2349H315.887V97.9045H332.989V69.2349Z" fill="#F5C798" stroke="black" stroke-linecap="round" stroke-linejoin="round"/>
<path d="M332.999 97.9045C340.931 97.9045 347.362 91.4866 347.362 83.5697C347.362 75.6528 340.931 69.2349 332.999 69.2349C325.066 69.2349 318.636 75.6528 318.636 83.5697C318.636 91.4866 325.066 97.9045 332.999 97.9045Z" fill="#FFDBBD" stroke="black" stroke-linecap="round" stroke-linejoin="round"/>
<path d="M332.999 89.9263C336.516 89.9263 339.368 87.0804 339.368 83.5697C339.368 80.0591 336.516 77.2131 332.999 77.2131C329.481 77.2131 326.63 80.0591 326.63 83.5697C326.63 87.0804 329.481 89.9263 332.999 89.9263Z" fill="#F5C798" stroke="black" stroke-linecap="round" stroke-linejoin="round"/>
<path d="M272.026 31.5058H266.63C292.417 31.5058 313.32 52.3674 313.32 78.104V87.4237L312.387 149.098H343.822C329.509 149.098 317.954 137.395 318.175 123.111L318.716 87.4237V78.104C318.716 52.3674 297.813 31.5058 272.026 31.5058Z" fill="#FFDBBD" stroke="black" stroke-linecap="round" stroke-linejoin="round"/>
<path d="M312.939 122.78V149.108H343.862V122.78" fill="#F5C798"/>
<path d="M312.939 122.78V149.108H343.862V122.78" stroke="black" stroke-linecap="round" stroke-linejoin="round"/>
<path d="M300.241 0.784012H83.0185C51.8549 0.784012 26.5891 26.0001 26.5891 57.1023V149.108H120.832C134.995 149.108 146.479 137.646 146.479 123.511V51.987C146.479 40.6753 155.667 31.5058 167.001 31.5058H266.64C280.612 31.5058 293.149 37.6321 301.705 47.3422C313.922 46.5914 323.591 36.4709 323.591 24.0881C323.591 11.2148 313.139 0.784012 300.241 0.784012Z" fill="#FFDBBD"/>
<path opacity="0.7" d="M26.5891 83.5697V149.108H120.832C134.995 149.108 146.479 137.646 146.479 123.511V83.5797H26.5891V83.5697Z" fill="#F5C798"/>
<path d="M146.479 109.116V123.511C146.479 136.775 136.369 147.686 123.43 148.977H133.35C147.512 148.977 158.997 137.516 158.997 123.381V51.987C158.997 40.6753 168.184 31.5058 179.518 31.5058H167.011C155.677 31.5058 146.489 40.6753 146.489 51.987" fill="#FFDBBD"/>
<path d="M146.479 109.116V123.511C146.479 136.775 136.369 147.686 123.43 148.977H133.35C147.512 148.977 158.997 137.516 158.997 123.381V51.987C158.997 40.6753 168.184 31.5058 179.518 31.5058H167.011C155.677 31.5058 146.489 40.6753 146.489 51.987" stroke="black" stroke-linecap="round" stroke-linejoin="round"/>
<path d="M146.479 96.8234V98.9565" stroke="black" stroke-linecap="round" stroke-linejoin="round"/>
<path d="M166.991 31.5058H266.63C280.602 31.5058 293.139 37.6321 301.695 47.3422C313.912 46.5914 323.581 36.4709 323.581 24.0881C323.581 11.2148 313.129 0.784012 300.231 0.784012H83.0185C51.8549 0.784012 26.5891 26.0001 26.5891 57.1023V149.108H120.832C134.995 149.108 146.479 137.646 146.479 123.511" stroke="black" stroke-linecap="round" stroke-linejoin="round"/>
<path d="M146.479 70.9066V93.3999" stroke="black" stroke-linecap="round" stroke-linejoin="round"/>
<path d="M26.5891 149.108C12.4266 149.108 0.942078 137.646 0.942078 123.511C0.942078 109.376 12.4266 97.9146 26.5891 97.9146H120.832V149.118H26.5891V149.108Z" fill="#FFDBBD" stroke="black" stroke-linecap="round" stroke-linejoin="round"/>
<path d="M120.822 149.098C134.986 149.098 146.469 137.638 146.469 123.501C146.469 109.364 134.986 97.9045 120.822 97.9045C106.658 97.9045 95.175 109.364 95.175 123.501C95.175 137.638 106.658 149.098 120.822 149.098Z" fill="#FFDBBD" stroke="black" stroke-linecap="round" stroke-linejoin="round"/>
<path d="M120.822 134.853C127.104 134.853 132.196 129.77 132.196 123.501C132.196 117.232 127.104 112.149 120.822 112.149C114.54 112.149 109.448 117.232 109.448 123.501C109.448 129.77 114.54 134.853 120.822 134.853Z" fill="#F5C798" stroke="black" stroke-linecap="round" stroke-linejoin="round"/>
<path d="M24.9241 97.9045C16.9903 97.9045 10.561 91.4879 10.561 83.5697C10.561 75.6515 16.9903 69.2349 24.9241 69.2349H132.116V97.9045H24.9241Z" fill="#FFDBBD" stroke="black" stroke-linecap="round" stroke-linejoin="round"/>
<path d="M45.7868 97.9045C35.7065 97.9045 26.9903 103.711 22.7978 112.149" stroke="black" stroke-linecap="round" stroke-linejoin="round"/>
<path d="M98.495 97.9045C88.4147 97.9045 79.6986 103.711 75.506 112.149" stroke="black" stroke-linecap="round" stroke-linejoin="round"/>
<path d="M65.837 97.9045C59.2371 97.9045 53.53 101.708 50.7818 107.234" stroke="black" stroke-linecap="round" stroke-linejoin="round"/>
<path d="M45.9171 69.2349C40.2702 69.2349 35.3955 72.4882 33.0485 77.2131" stroke="black" stroke-linecap="round" stroke-linejoin="round"/>
<path d="M108.224 69.2349C101.624 69.2349 95.9173 73.0388 93.169 78.5645" stroke="black" stroke-linecap="round" stroke-linejoin="round"/>
<path d="M55.7066 69.2349C51.3836 69.2349 47.6423 71.7274 45.847 75.3412" stroke="black" stroke-linecap="round" stroke-linejoin="round"/>
<path d="M132.116 97.9045C140.048 97.9045 146.479 91.4866 146.479 83.5697C146.479 75.6528 140.048 69.2349 132.116 69.2349C124.183 69.2349 117.753 75.6528 117.753 83.5697C117.753 91.4866 124.183 97.9045 132.116 97.9045Z" fill="#FFDBBD" stroke="black" stroke-linecap="round" stroke-linejoin="round"/>
<path d="M132.116 89.9263C135.633 89.9263 138.485 87.0804 138.485 83.5697C138.485 80.0591 135.633 77.2131 132.116 77.2131C128.598 77.2131 125.747 80.0591 125.747 83.5697C125.747 87.0804 128.598 89.9263 132.116 89.9263Z" fill="#F5C798" stroke="black" stroke-linecap="round" stroke-linejoin="round"/>
<path d="M287.151 11.7854V16.1499C287.151 24.6287 280.261 31.5058 271.765 31.5058H249.899" stroke="black" stroke-linecap="round" stroke-linejoin="round"/>
<path d="M343.751 149.098C357.916 149.098 369.398 137.638 369.398 123.501C369.398 109.364 357.916 97.9045 343.751 97.9045C329.587 97.9045 318.104 109.364 318.104 123.501C318.104 137.638 329.587 149.098 343.751 149.098Z" fill="#FFDBBD" stroke="black" stroke-linecap="round" stroke-linejoin="round"/>
<path d="M343.751 134.853C350.033 134.853 355.125 129.77 355.125 123.501C355.125 117.232 350.033 112.149 343.751 112.149C337.469 112.149 332.377 117.232 332.377 123.501C332.377 129.77 337.469 134.853 343.751 134.853Z" fill="#F5C798" stroke="black" stroke-linecap="round" stroke-linejoin="round"/>
<g style="mix-blend-mode:overlay" opacity="0.5">
<path d="M260.15 36.2207H266.63C280.792 36.2207 293.35 43.248 300.963 53.9991" stroke="white" stroke-linecap="round" stroke-linejoin="round"/>
</g>
<g style="mix-blend-mode:overlay" opacity="0.5">
<path d="M242.628 36.2207H251.795" stroke="white" stroke-linecap="round" stroke-linejoin="round"/>
</g>
<path d="M53.5701 194.865L14.1919 185.635C10.9722 184.885 7.89294 187.317 7.89294 190.62V223.645C7.89294 226.948 10.9722 229.381 14.1919 228.63L61.4638 217.548C57.9231 211.082 55.3855 203.564 53.5701 194.865Z" fill="#FF73A6" stroke="black" stroke-linecap="round" stroke-linejoin="round"/>
<path d="M34.6734 201.762L55.8068 203.765" stroke="black" stroke-linecap="round" stroke-linejoin="round"/>
<path d="M34.6734 214.595L58.2241 210.681" stroke="black" stroke-linecap="round" stroke-linejoin="round"/>
<path d="M60.0395 214.786C29.8589 240.372 35.9973 276.469 58.5952 308.953L53.7707 289.423C55.0546 293.998 59.2873 306.03 70.9422 318.993C82.0556 302.006 103.881 276.569 96.9002 245.037C78.4046 238.86 67.0205 229.25 60.0395 214.786Z" fill="#FFDBBD" stroke="black" stroke-linecap="round" stroke-linejoin="round"/>
<path d="M261.023 217.338H229.679C224.744 217.338 220.742 213.344 220.742 208.419V192.843H261.033C254.654 206.066 261.033 217.338 261.033 217.338H261.023Z" fill="#F07882"/>
<path d="M221.013 196.997H252.407C254.714 196.997 256.579 195.135 256.579 192.833H221.013" fill="white"/>
<path d="M221.013 196.997H252.407C254.714 196.997 256.579 195.135 256.579 192.833H221.013" stroke="black" stroke-linecap="round" stroke-linejoin="round"/>
<path d="M229.669 192.833C229.408 192.833 229.147 192.843 228.886 192.873V196.997H236.349V192.833H229.669Z" fill="#FFC053" stroke="black" stroke-linecap="round" stroke-linejoin="round"/>
<path d="M236.108 206.647C232.698 205.546 227.743 205.286 220.732 207.488V208.409C220.732 213.334 224.734 217.328 229.669 217.328H255.948C255.797 208.849 247.191 203.404 236.108 206.647Z" fill="#FF4D66" stroke="black" stroke-linecap="round" stroke-linejoin="round"/>
<path d="M236.349 206.727C241.163 208.369 242.788 211.662 242.788 211.662" stroke="black" stroke-linecap="round" stroke-linejoin="round"/>
<path d="M260.431 221.252H262.918C264.002 221.252 264.884 220.371 264.884 219.29C264.884 218.209 264.002 217.328 262.918 217.328H229.679C224.744 217.328 220.742 213.334 220.742 208.409V192.833H263.38C265.336 192.833 266.92 191.251 266.92 189.299C266.92 187.347 265.336 185.765 263.38 185.765H262.006V183.063" stroke="black" stroke-linecap="round" stroke-linejoin="round"/>
<path d="M215.958 190.3C217.251 192.843 221.013 192.843 221.013 192.843" stroke="black" stroke-linecap="round" stroke-linejoin="round"/>
<g style="mix-blend-mode:overlay" opacity="0.7">
<path d="M250.451 187.818H262.718" stroke="white" stroke-linecap="round" stroke-linejoin="round"/>
</g>
<g style="mix-blend-mode:overlay" opacity="0.7">
<path d="M243.821 187.818H246.66" stroke="white" stroke-linecap="round" stroke-linejoin="round"/>
</g>
<path opacity="0.5" d="M174.954 215.246C183.884 215.246 191.123 208.021 191.123 199.109C191.123 190.197 183.884 182.973 174.954 182.973C166.025 182.973 158.786 190.197 158.786 199.109C158.786 208.021 166.025 215.246 174.954 215.246Z" fill="#FF8097"/>
<path d="M174.955 201.422L197.191 189.75" stroke="black" stroke-linecap="round" stroke-linejoin="round"/>
<path d="M160.742 208.889L167.422 205.386" stroke="black" stroke-linecap="round" stroke-linejoin="round"/>
<path d="M150.621 208.859L185.647 190.47" stroke="black" stroke-linecap="round" stroke-linejoin="round"/>
<path d="M107.231 247.78L124.413 238.75" stroke="black" stroke-linecap="round" stroke-linejoin="round"/>
<path d="M99.6284 245.517L108.224 241.013" stroke="black" stroke-linecap="round" stroke-linejoin="round"/>
<path d="M144.182 212.244L147.592 210.451" stroke="black" stroke-linecap="round" stroke-linejoin="round"/>
<path d="M206.589 168.708C221.335 168.708 233.29 153.9 233.29 135.634C233.29 117.367 221.335 102.559 206.589 102.559C191.843 102.559 179.889 117.367 179.889 135.634C179.889 153.9 191.843 168.708 206.589 168.708Z" fill="white"/>
<path d="M203.35 132.13C206.9 132.13 209.779 128.567 209.779 124.172C209.779 119.777 206.9 116.213 203.35 116.213C199.799 116.213 196.92 119.777 196.92 124.172C196.92 128.567 199.799 132.13 203.35 132.13Z" fill="black"/>
<path d="M290.582 168.708C305.328 168.708 317.282 153.9 317.282 135.634C317.282 117.367 305.328 102.559 290.582 102.559C275.835 102.559 263.881 117.367 263.881 135.634C263.881 153.9 275.835 168.708 290.582 168.708Z" fill="white"/>
<path d="M286.579 132.13C290.13 132.13 293.009 128.567 293.009 124.172C293.009 119.777 290.13 116.213 286.579 116.213C283.029 116.213 280.15 119.777 280.15 124.172C280.15 128.567 283.029 132.13 286.579 132.13Z" fill="black"/>
<path d="M264.834 126.905H316.339C313.25 112.88 302.889 102.559 290.592 102.559C278.295 102.559 267.934 112.88 264.844 126.905H264.834Z" fill="#FEACB3" stroke="black" stroke-linecap="round" stroke-linejoin="round"/>
<path d="M180.832 126.905H232.337C229.247 112.88 218.886 102.559 206.589 102.559C194.292 102.559 183.931 112.88 180.842 126.905H180.832Z" fill="#FEACB3" stroke="black" stroke-linecap="round" stroke-linejoin="round"/>
<path d="M215.446 285.699L207.342 299.053L219.338 353.229L202.076 365.161L186.268 353.229L198.264 299.053L189.649 285.699" stroke="#2F4770" stroke-linecap="round" stroke-linejoin="round"/>
<path d="M198.264 299.053H202.617V294.978" stroke="#2F4770" stroke-linecap="round" stroke-linejoin="round"/>
<path d="M207.342 299.053H205.837" stroke="#2F4770" stroke-linecap="round" stroke-linejoin="round"/>
<path d="M127.452 336.972C128.538 336.972 129.418 336.094 129.418 335.01C129.418 333.926 128.538 333.048 127.452 333.048C126.366 333.048 125.486 333.926 125.486 335.01C125.486 336.094 126.366 336.972 127.452 336.972Z" stroke="#2F4770" stroke-linecap="round" stroke-linejoin="round"/>
<path d="M127.452 336.972V350.306" stroke="#2F4770" stroke-linecap="round" stroke-linejoin="round"/>
<path d="M127.452 346.952C127.452 348.804 125.947 350.316 124.082 350.316H123.61C121.755 350.316 120.24 348.814 120.24 346.952V345.191L121.354 346.302" stroke="#2F4770" stroke-linecap="round" stroke-linejoin="round"/>
<path d="M127.452 346.952C127.452 348.804 128.956 350.316 130.822 350.316H131.293C133.149 350.316 134.664 348.814 134.664 346.952V345.19L133.55 346.302" stroke="#2F4770" stroke-linecap="round" stroke-linejoin="round"/>
<path d="M122.868 340.746H132.036" stroke="#2F4770" stroke-linecap="round" stroke-linejoin="round"/>
<mask id="mask0_3_31" style="mask-type:luminance" maskUnits="userSpaceOnUse" x="115" y="317" width="25" height="14">
<path d="M139.638 317.752H115.065V330.705H139.638V317.752Z" fill="white"/>
</mask>
<g mask="url(#mask0_3_31)">
<path d="M114.383 327.562L121.022 321.206V327.562L127.693 321.176V327.562L134.162 321.366V327.562L140.31 321.676" stroke="#2F4770" stroke-linecap="round" stroke-linejoin="round"/>
</g>
<path d="M70.4908 205.146L88.1138 224.355L79.3876 205.146H70.4908Z" fill="#17C7FF" stroke="black" stroke-linecap="round" stroke-linejoin="round"/>
<path d="M79.3876 205.146L88.1138 224.355L96.8299 205.146H79.3876Z" fill="#0098F0" stroke="black" stroke-linecap="round" stroke-linejoin="round"/>
<path d="M96.8299 205.146H105.737L88.1138 224.355L96.8299 205.146Z" fill="#17C7FF" stroke="black" stroke-linecap="round" stroke-linejoin="round"/>
<path d="M94.3023 197.518L96.8299 205.146H105.737L100.621 197.518H94.3023Z" fill="white" stroke="black" stroke-linecap="round" stroke-linejoin="round"/>
<path d="M81.9151 197.518L79.3876 205.146H96.8299L94.3023 197.518H81.9151Z" fill="#A3E9FF" stroke="black" stroke-linecap="round" stroke-linejoin="round"/>
<path d="M75.6062 197.518L70.4908 205.146H79.3876L81.9151 197.518H75.6062Z" fill="#17C7FF" stroke="black" stroke-linecap="round" stroke-linejoin="round"/>
<path d="M88.1138 194.785C90.6896 194.785 92.7778 192.701 92.7778 190.13C92.7778 187.559 90.6896 185.475 88.1138 185.475C85.5379 185.475 83.4498 187.559 83.4498 190.13C83.4498 192.701 85.5379 194.785 88.1138 194.785Z" fill="#FFC053" stroke="black" stroke-linecap="round" stroke-linejoin="round"/>
<path d="M186.349 84.9812V87.744C186.349 90.9474 188.104 93.5401 190.27 93.5401H221.956C224.122 93.5401 225.877 90.9474 225.877 87.744V85.3616C225.877 81.1572 222.949 78.3443 220.351 80.0661C219.187 80.8369 217.843 80.7268 216.74 79.7658L214.764 78.034C213.61 77.0129 212.176 76.9529 210.983 77.8538L208.244 79.926C207.091 80.7969 205.727 80.7668 204.593 79.8559L202.216 77.9539C201.013 76.9929 199.558 77.023 198.375 78.044L196.258 79.8659C195.215 80.7668 193.941 80.907 192.818 80.2363L191.735 79.5956C189.157 78.064 186.349 80.8669 186.349 84.9812Z" fill="#FFDBBD" stroke="black" stroke-linecap="round" stroke-linejoin="round"/>
<path d="M270.822 84.9812V87.744C270.822 90.9474 272.577 93.5401 274.744 93.5401H306.429C308.596 93.5401 310.351 90.9474 310.351 87.744V85.3616C310.351 81.1572 307.422 78.3443 304.824 80.0661C303.661 80.8369 302.317 80.7268 301.213 79.7658L299.237 78.034C298.084 77.0129 296.65 76.9529 295.456 77.8538L292.718 79.926C291.564 80.7969 290.2 80.7668 289.067 79.8559L286.69 77.9539C285.486 76.9929 284.032 77.023 282.848 78.044L280.732 79.8659C279.689 80.7668 278.415 80.907 277.292 80.2363L276.208 79.5956C273.631 78.064 270.822 80.8669 270.822 84.9812Z" fill="#FFDBBD" stroke="black" stroke-linecap="round" stroke-linejoin="round"/>
<defs>
<linearGradient id="paint0_linear_3_31" x1="74.3023" y1="172.342" x2="87.0004" y2="172.342" gradientUnits="userSpaceOnUse">
<stop stop-color="#E35D6C"/>
<stop offset="0.13" stop-color="#E56674" stop-opacity="0.9"/>
<stop offset="0.39" stop-color="#EC808B" stop-opacity="0.66"/>
<stop offset="0.76" stop-color="#F7A8AF" stop-opacity="0.26"/>
<stop offset="1" stop-color="#FFC4C8" stop-opacity="0"/>
</linearGradient>
</defs>
</svg>
