<svg width="110" height="130" viewBox="0 0 110 130" fill="none" xmlns="http://www.w3.org/2000/svg">
<path d="M65.7314 121.188C54.5266 123.477 44.5049 122.39 35.9498 117.953C28.5038 114.09 22.3943 107.7 18.2894 99.469C9.11101 81.0702 11.4327 57.2677 23.4668 46.4063C24.0534 45.8775 24.7527 45.5345 25.4948 45.3829C26.3218 45.214 27.1979 45.2884 28.0127 45.6288C29.5506 46.2705 30.585 47.7443 30.6753 49.4197C31.1755 58.7387 34.0299 61.9258 35.2342 62.8624C36.1613 63.5844 37.1456 63.8457 38.1592 63.6387C39.5503 63.3545 40.8406 62.2417 41.6094 60.6664C42.2972 59.2587 43.1359 56.2553 41.0414 51.9748C37.0521 43.8133 35.4218 36.1169 36.2019 29.0973C37.04 21.5768 40.607 14.8016 46.8075 8.95548C47.4009 8.3941 48.1297 8.02291 48.9058 7.86436C49.5717 7.72833 50.2694 7.75031 50.9437 7.94155C52.4055 8.35874 53.5391 9.51431 53.9412 10.9838C53.9703 11.0846 58.2233 25.0032 79.9799 37.5201C95.3239 46.3497 104.975 68.1021 101.952 87.0417C100.642 95.2454 96.9821 102.591 91.3761 108.276C85.088 114.651 76.4604 118.992 65.7348 121.183L65.7314 121.188Z" fill="white" stroke="black" stroke-miterlimit="10"/>
<path d="M26.3605 49.6568C6.80456 67.3011 17.223 126.652 64.871 116.918C112.519 107.184 101.709 55.0491 77.834 41.311C53.959 27.5729 49.7672 12.1391 49.7672 12.1391C38.6309 22.6348 37.8195 35.525 44.9283 50.0518C53.5503 67.6839 27.9834 79.8871 26.3605 49.6568Z" fill="#EF5261" stroke="black" stroke-miterlimit="10"/>
<path d="M55.9126 67.8593C40.9535 92.4072 42.899 121.411 65.7624 116.741C88.6258 112.07 79.1907 84.5959 55.9126 67.8593Z" fill="#FFD92E" stroke="black" stroke-miterlimit="10"/>
</svg>
