<svg width="77" height="67" viewBox="0 0 77 67" fill="none" xmlns="http://www.w3.org/2000/svg">
<path d="M29.1957 62.0884C26.9543 62.0884 27.3523 61.2004 26.5563 59.0021L20.01 36.6624L60.6911 10.4026L65.4567 11.7129L61.4871 22.8774L29.1957 62.0884Z" fill="#F0E9E4" stroke="black" stroke-linecap="round" stroke-linejoin="round"/>
<path d="M29.1982 62.0884C30.9265 62.0884 31.6701 61.2546 32.6442 60.3017C34.142 58.8181 53.3304 39.5104 53.3304 39.5104L41.5471 36.5433L30.6332 43.6687L29.1982 61.4928V62.0884Z" fill="#F0E9E4" stroke="black" stroke-linecap="round" stroke-linejoin="round"/>
<path d="M30.6322 43.6686L58.1579 65.1204C61.3211 66.9072 63.6149 66.0084 64.4214 62.0884L75.7438 6.95904C76.896 2.15106 73.9632 0.00699395 70.9153 1.43639L4.48911 27.9344C-0.0461333 29.8402 0.00623626 32.45 3.68261 33.5762L20.7448 39.0988L60.2213 13.3697C62.0648 12.1785 63.7825 12.8391 62.3999 14.1385L30.6218 43.6686H30.6322Z" fill="white" stroke="black" stroke-linecap="round" stroke-linejoin="round"/>
</svg>
