<svg width="77" height="77" viewBox="0 0 77 77" fill="none" xmlns="http://www.w3.org/2000/svg">
<path d="M17.7679 31.8503L1 48.6182L23.841 71.4592L40.6089 54.6913L17.7679 31.8503Z" fill="#FEACB3" stroke="black" stroke-linecap="round" stroke-linejoin="round"/>
<path d="M16.4273 34.4063C9.04166 20.1329 23.5197 12.3731 28.1501 19.2427L24.4101 23.5258C24.4101 23.5258 46.63 -3.26168 53.2824 1.58687C59.9138 6.42495 40.0615 25.1804 40.0615 25.1804C48.3795 19.9653 54.5919 30.2698 48.3481 35.7467C51.8786 32.2176 65.1099 47.5067 39.2025 56.0938" fill="#FEACB3"/>
<path d="M16.4273 34.4063C9.04166 20.1329 23.5197 12.3731 28.1501 19.2427L24.4101 23.5258C24.4101 23.5258 46.63 -3.26168 53.2824 1.58687C59.9138 6.42495 40.0615 25.1804 40.0615 25.1804C48.3795 19.9653 54.5919 30.2698 48.3481 35.7466C51.8786 32.2176 65.1099 47.5067 39.2025 56.0938" stroke="black" stroke-linecap="round" stroke-linejoin="round"/>
<path d="M27.9919 38.9808L15.5271 51.4456L40.0864 76.0049L52.5512 63.5401L27.9919 38.9808Z" fill="white" stroke="black" stroke-linecap="round" stroke-linejoin="round"/>
<path d="M26.3169 41.9567C18.376 26.6047 35.075 17.9129 40.0406 25.2852L35.1273 30.0186C35.1273 30.0186 43.5502 19.7979 48.9139 25.2329C52.6015 28.9609 50.3177 33.3905 50.3177 33.3905C62.3129 21.044 70.7357 14.1639 74.8214 18.2271C81.0966 24.4789 60.2701 42.4489 60.2701 42.4489C67.0272 41.1399 72.9252 65.5607 50.4434 64.9009" fill="white"/>
<path d="M26.3169 41.9567C18.376 26.6047 35.075 17.9129 40.0406 25.2852L35.1273 30.0186C35.1273 30.0186 43.5502 19.7979 48.9139 25.2329C52.6015 28.9609 50.3177 33.3905 50.3177 33.3905C62.3129 21.044 70.7357 14.1639 74.8214 18.2271C81.0966 24.4789 60.2701 42.4489 60.2701 42.4489C67.0272 41.1399 72.9252 65.5607 50.4434 64.9009" stroke="black" stroke-linecap="round" stroke-linejoin="round"/>
</svg>
