<svg width="56" height="77" viewBox="0 0 56 77" fill="none" xmlns="http://www.w3.org/2000/svg">
<path d="M49.3952 9.8291H6.59421C3.50461 9.8291 1 12.3143 1 15.38V70.4491C1 73.5148 3.50461 76 6.59421 76H49.3952C52.4848 76 54.9894 73.5148 54.9894 70.4491V15.38C54.9894 12.3143 52.4848 9.8291 49.3952 9.8291Z" fill="#6060A8" stroke="black" stroke-linecap="round" stroke-linejoin="round"/>
<path d="M49.3213 9.8291H6.66804C3.54372 9.8291 1.0105 12.2904 1.0105 15.3276V44.2866H54.9999V15.3276C54.9999 12.2904 52.4667 9.8291 49.3424 9.8291H49.3213Z" fill="#FF5252" stroke="black" stroke-linecap="round" stroke-linejoin="round"/>
<path d="M19.4398 1H36.5497C38.1013 1 39.3573 2.24631 39.3573 3.7859V9.81858H16.6216V3.7859C16.6216 2.24631 17.8776 1 19.4292 1H19.4398Z" fill="#DBD2C6" stroke="black" stroke-linecap="round" stroke-linejoin="round"/>
<path d="M28.8339 18.899L8.45199 46.5279C7.56536 47.7323 8.45199 49.408 9.97193 49.408H25.0658L23.7569 64.6573C23.5986 66.5006 26.0368 67.37 27.1451 65.8618L47.5271 38.2329C48.4137 37.0285 47.5271 35.3528 46.0071 35.3528H30.9133L32.2221 20.1035C32.3805 18.2602 29.9422 17.3909 28.8339 18.899Z" fill="#FFC66B" stroke="black" stroke-linecap="round" stroke-linejoin="round"/>
</svg>
