<svg width="75" height="75" viewBox="0 0 75 75" fill="none" xmlns="http://www.w3.org/2000/svg">
<path d="M74.5 37.5C74.5 57.9345 57.9345 74.5 37.5 74.5C17.0655 74.5 0.5 57.9345 0.5 37.5C0.5 17.0655 17.0655 0.5 37.5 0.5C57.9345 0.5 74.5 17.0655 74.5 37.5Z" fill="#64D1ED" stroke="black"/>
<path d="M37.5 64.2842C52.2926 64.2842 64.2843 52.2925 64.2843 37.5C64.2843 22.7075 52.2926 10.7158 37.5 10.7158C22.7075 10.7158 10.7158 22.7075 10.7158 37.5C10.7158 52.2925 22.7075 64.2842 37.5 64.2842Z" fill="white" stroke="black" stroke-linecap="round" stroke-linejoin="round"/>
<path d="M41.5752 22.4476C41.5752 20.1972 39.7533 18.3729 37.5058 18.3729C35.2582 18.3729 33.4363 20.1972 33.4363 22.4476V36.2221C33.4363 38.4725 35.2582 40.2967 37.5058 40.2967C39.7533 40.2967 41.5752 38.4725 41.5752 36.2221V22.4476Z" fill="#FFC66B" stroke="black" stroke-linecap="round" stroke-linejoin="round"/>
<path d="M57.4888 34.3177C59.6386 33.6526 60.843 31.3729 60.1788 29.2258C59.5145 27.0787 57.2332 25.8772 55.0834 26.5423L36.3203 32.3469C34.1704 33.012 32.9661 35.2917 33.6303 37.4388C34.2945 39.5859 36.5759 40.7874 38.7257 40.1223L57.4888 34.3177Z" fill="#FF5252" stroke="black" stroke-linecap="round" stroke-linejoin="round"/>
</svg>
