<svg width="320" height="180" viewBox="0 0 320 180" fill="none" xmlns="http://www.w3.org/2000/svg">
<mask id="path-1-inside-1_128_1177" fill="white">
<path fill-rule="evenodd" clip-rule="evenodd" d="M20 0C8.95431 0 0 8.95428 0 20V139.622C0 150.668 8.95431 159.622 20 159.622H140.858L161.284 180L181.711 159.622H300C311.046 159.622 320 150.668 320 139.622V20C320 8.95431 311.046 0 300 0H20Z"/>
</mask>
<path fill-rule="evenodd" clip-rule="evenodd" d="M20 0C8.95431 0 0 8.95428 0 20V139.622C0 150.668 8.95431 159.622 20 159.622H140.858L161.284 180L181.711 159.622H300C311.046 159.622 320 150.668 320 139.622V20C320 8.95431 311.046 0 300 0H20Z" fill="white"/>
<path d="M140.858 159.622L141.564 158.914L141.271 158.622H140.858V159.622ZM161.284 180L160.578 180.708L161.284 181.413L161.99 180.708L161.284 180ZM181.711 159.622V158.622H181.297L181.004 158.914L181.711 159.622ZM1 20C1 9.50657 9.50659 1 20 1V-1C8.40202 -1 -1 8.40199 -1 20H1ZM1 139.622V20H-1V139.622H1ZM20 158.622C9.50659 158.622 1 150.115 1 139.622H-1C-1 151.22 8.40202 160.622 20 160.622V158.622ZM140.858 158.622H20V160.622H140.858V158.622ZM161.99 179.292L141.564 158.914L140.152 160.33L160.578 180.708L161.99 179.292ZM181.004 158.914L160.578 179.292L161.99 180.708L182.417 160.33L181.004 158.914ZM300 158.622H181.711V160.622H300V158.622ZM319 139.622C319 150.115 310.493 158.622 300 158.622V160.622C311.598 160.622 321 151.22 321 139.622H319ZM319 20V139.622H321V20H319ZM300 1C310.493 1 319 9.50659 319 20H321C321 8.40202 311.598 -1 300 -1V1ZM20 1H300V-1H20V1Z" fill="black" mask="url(#path-1-inside-1_128_1177)"/>
</svg>
