<svg width="166" height="166" viewBox="0 0 166 166" fill="none" xmlns="http://www.w3.org/2000/svg">
<path d="M64.2346 152.575L47.5747 154.605C39.8447 155.545 32.5747 150.735 30.4147 143.255L25.7647 127.125C24.8447 123.915 22.9246 121.085 20.3046 119.025L7.08464 108.675C0.954641 103.875 -0.785344 95.3347 2.97466 88.5147L11.0947 73.8247C12.7047 70.9047 13.3546 67.5446 12.9546 64.2346L10.9246 47.5746C9.98464 39.8446 14.7946 32.5747 22.2746 30.4147L38.4046 25.7647C41.6146 24.8447 44.4447 22.9247 46.5047 20.3047L56.8547 7.08465C61.6547 0.954651 70.1947 -0.785348 77.0147 2.97465L91.7046 11.0947C94.6246 12.7047 97.9847 13.3547 101.295 12.9547L117.955 10.9247C125.685 9.98465 132.955 14.7947 135.115 22.2747L139.765 38.4047C140.685 41.6147 142.605 44.4447 145.225 46.5047L158.445 56.8546C164.575 61.6546 166.315 70.1947 162.555 77.0147L154.435 91.7047C152.825 94.6247 152.175 97.9847 152.575 101.295L154.605 117.955C155.545 125.685 150.735 132.955 143.255 135.115L127.125 139.765C123.915 140.685 121.085 142.605 119.025 145.225L108.675 158.445C103.875 164.575 95.3347 166.315 88.5147 162.555L73.8247 154.435C70.9047 152.825 67.5446 152.175 64.2346 152.575Z" fill="#FFC053" stroke="black" stroke-linecap="round" stroke-linejoin="round"/>
<path d="M23.4547 114.995L10.2346 104.655" stroke="white" stroke-linecap="round" stroke-linejoin="round"/>
<path d="M155.285 60.8847C159.465 64.1547 160.635 69.8946 158.065 74.5346L149.945 89.2247C147.795 93.1147 146.945 97.4947 147.485 101.905L149.515 118.565C150.155 123.835 146.925 128.715 141.825 130.185" stroke="white" stroke-linecap="round" stroke-linejoin="round"/>
<path d="M101.905 18.0447L118.565 16.0147C119.005 15.9647 119.445 15.9347 119.875 15.9347C124.625 15.9347 128.865 19.1247 130.185 23.7047L134.835 39.8347" stroke="white" stroke-linecap="round" stroke-linejoin="round"/>
<path d="M50.5247 23.4647L60.8747 10.2447C62.9247 7.62465 66.0147 6.12465 69.3447 6.12465" stroke="white" stroke-linecap="round" stroke-linejoin="round"/>
<path d="M16.0047 46.9547C15.3647 41.6947 18.5947 36.8047 23.6947 35.3347L39.8247 30.6847C42.7047 29.8547 45.3347 28.4447 47.5747 26.5347" stroke="white" stroke-linecap="round" stroke-linejoin="round"/>
</svg>
