<?xml version="1.0" encoding="utf-8"?>
<!-- Generator: Adobe Illustrator 24.0.0, SVG Export Plug-In . SVG Version: 6.00 Build 0)  -->
<svg version="1.1" id="Слой_1" xmlns="http://www.w3.org/2000/svg" xmlns:xlink="http://www.w3.org/1999/xlink" x="0px" y="0px"
	 viewBox="0 0 84 75" style="enable-background:new 0 0 84 75;" xml:space="preserve">
<style type="text/css">
	.st0{fill:#DBD2C6;stroke:#000000;stroke-width:3;stroke-linecap:round;stroke-linejoin:round;stroke-miterlimit:10;}
	.st1{fill:#6A6AB0;stroke:#000000;stroke-width:3;stroke-linecap:round;stroke-linejoin:round;stroke-miterlimit:10;}
	.st2{fill:none;stroke:#FFFFFF;stroke-width:3;stroke-linecap:round;stroke-linejoin:round;stroke-miterlimit:10;}
	.st3{fill:#FFAC53;stroke:#000000;stroke-width:3;stroke-linecap:round;stroke-linejoin:round;stroke-miterlimit:10;}
	.st4{fill:#E94B4B;stroke:#000000;stroke-width:3;stroke-linecap:round;stroke-linejoin:round;stroke-miterlimit:10;}
</style>
<g>
	<g>
		<g>
			<g>
				<path class="st0" d="M48.41,2.88C36.55,2.06,25.83,7.19,18.92,15.59c-3.75,4.55-9.32,7.21-15.22,7.21h-136.53
					c-5.39,0-10.47-2.29-14.27-6.12c-5.44-5.48-12.96-8.88-21.27-8.88s-15.84,3.4-21.27,8.88c-3.8,3.83-8.88,6.12-14.27,6.12
					h-145.03c-5.39,0-10.47-2.29-14.27-6.12c-5.44-5.48-12.96-8.88-21.27-8.88c-8.31,0-15.84,3.4-21.27,8.88
					c-3.8,3.83-8.88,6.12-14.27,6.12h-145.03c-5.39,0-10.47-2.29-14.27-6.12c-5.44-5.48-12.96-8.88-21.27-8.88
					c-8.31,0-15.84,3.4-21.27,8.88c-3.8,3.83-8.88,6.12-14.27,6.12h-145.03c-5.39,0-10.47-2.29-14.27-6.12
					c-5.44-5.48-12.96-8.88-21.27-8.88s-15.84,3.4-21.27,8.88c-3.8,3.83-8.88,6.12-14.27,6.12h-145.03
					c-5.39,0-10.47-2.29-14.27-6.12c-5.44-5.48-12.96-8.88-21.27-8.88c-8.31,0-15.84,3.4-21.27,8.88c-3.8,3.83-8.88,6.12-14.27,6.12
					h-145.04c-5.25,0-10.33-2.06-13.98-5.83c-5.9-6.1-14.35-9.72-23.62-9.1c-14.86,1-26.91,13.08-27.87,27.94
					c-1.13,17.44,12.73,31.99,29.94,31.99c8.31,0,15.84-3.4,21.27-8.88c3.8-3.83,8.88-6.12,14.27-6.12h145.03
					c5.39,0,10.47,2.29,14.27,6.12c5.44,5.48,12.96,8.88,21.27,8.88c8.31,0,15.84-3.4,21.27-8.88c3.8-3.83,8.88-6.12,14.27-6.12
					h145.03c5.39,0,10.47,2.29,14.27,6.12c5.44,5.48,12.96,8.88,21.27,8.88s15.84-3.4,21.27-8.88c3.8-3.83,8.88-6.12,14.27-6.12
					h145.03c5.39,0,10.47,2.29,14.27,6.12c5.44,5.48,12.96,8.88,21.27,8.88c8.31,0,15.84-3.4,21.27-8.88
					c3.8-3.83,8.88-6.12,14.27-6.12h145.03c5.39,0,10.47,2.29,14.27,6.12c5.44,5.48,12.96,8.88,21.27,8.88
					c8.31,0,15.84-3.4,21.27-8.88c3.8-3.83,8.88-6.12,14.27-6.12h145.03c5.39,0,10.47,2.29,14.27,6.12
					c5.44,5.48,12.96,8.88,21.27,8.88s15.84-3.4,21.27-8.88c3.8-3.83,8.88-6.12,14.27-6.12H3.59c5.86,0,11.51,2.51,15.2,7.05
					c6.42,7.9,16.21,12.95,27.16,12.95c20.14,0,36.36-17.1,34.91-37.55C79.64,18,65.66,4.06,48.41,2.88z"/>
				<g>
					<path class="st1" d="M-1248.98,57.79L-1248.98,57.79c-11.05,0-20-8.95-20-20v0c0-11.05,8.95-20,20-20l0,0
						c11.05,0,20,8.95,20,20v0C-1228.98,48.84-1237.93,57.79-1248.98,57.79z"/>
					<path class="st2" d="M-1248.98,22.79c8.27,0,15,6.73,15,15"/>
					<path class="st1" d="M-1032.86,57.79L-1032.86,57.79c-11.05,0-20-8.95-20-20v0c0-11.05,8.95-20,20-20h0c11.05,0,20,8.95,20,20
						v0C-1012.86,48.84-1021.81,57.79-1032.86,57.79z"/>
					<path class="st2" d="M-1032.86,22.79c8.27,0,15,6.73,15,15"/>
					<path class="st1" d="M-816.73,57.79L-816.73,57.79c-11.05,0-20-8.95-20-20v0c0-11.05,8.95-20,20-20h0c11.05,0,20,8.95,20,20v0
						C-796.73,48.84-805.69,57.79-816.73,57.79z"/>
					<path class="st2" d="M-816.73,22.79c8.27,0,15,6.73,15,15"/>
					<path class="st1" d="M-600.61,57.79L-600.61,57.79c-11.05,0-20-8.95-20-20v0c0-11.05,8.95-20,20-20h0c11.05,0,20,8.95,20,20v0
						C-580.61,48.84-589.57,57.79-600.61,57.79z"/>
					<path class="st2" d="M-600.61,22.79c8.27,0,15,6.73,15,15"/>
					<path class="st1" d="M-384.49,57.79L-384.49,57.79c-11.05,0-20-8.95-20-20v0c0-11.05,8.95-20,20-20h0c11.05,0,20,8.95,20,20v0
						C-364.49,48.84-373.45,57.79-384.49,57.79z"/>
					<path class="st2" d="M-384.49,22.79c8.27,0,15,6.73,15,15"/>
					<path class="st3" d="M-168.37,57.79L-168.37,57.79c-11.05,0-20-8.95-20-20v0c0-11.05,8.95-20,20-20h0c11.05,0,20,8.95,20,20v0
						C-148.37,48.84-157.32,57.79-168.37,57.79z"/>
					<path class="st2" d="M-168.37,22.79c8.27,0,15,6.73,15,15"/>
					<path class="st4" d="M45.95,62.79L45.95,62.79c-13.81,0-25-11.19-25-25v0c0-13.81,11.19-25,25-25h0c13.81,0,25,11.19,25,25v0
						C70.95,51.6,59.76,62.79,45.95,62.79z"/>
					<path class="st2" d="M45.95,17.79c11.03,0,20,8.97,20,20"/>
					<g>
						<text transform="matrix(1 0 0 1 -1259.2382 -11.9351)" style="font-family:'SFPro-Light'; font-size:40px;">1</text>
					</g>
					<g>
						<text transform="matrix(1 0 0 1 -1043.4158 -11.9351)" style="font-family:'SFPro-Light'; font-size:40px;">2</text>
					</g>
					<g>
						<text transform="matrix(1 0 0 1 -827.595 -11.9351)" style="font-family:'SFPro-Light'; font-size:40px;">3</text>
					</g>
					<g>
						<text transform="matrix(1 0 0 1 -611.7727 -11.9351)" style="font-family:'SFPro-Light'; font-size:40px;">4</text>
					</g>
					<g>
						<text transform="matrix(1 0 0 1 -395.95 -11.9351)" style="font-family:'SFPro-Light'; font-size:40px;">5</text>
					</g>
					<g>
						<text transform="matrix(1 0 0 1 -180.1282 -11.9351)" style="font-family:'SFPro-Light'; font-size:40px;">6</text>
					</g>
					<g>
						<text transform="matrix(1 0 0 1 35.6936 -11.9351)" style="font-family:'SFPro-Light'; font-size:40px;">7</text>
					</g>
				</g>
			</g>
		</g>
	</g>
</g>
</svg>
