<?xml version="1.0" encoding="utf-8"?>
<!-- Generator: Adobe Illustrator 24.0.0, SVG Export Plug-In . SVG Version: 6.00 Build 0)  -->
<svg version="1.1" id="Слой_1" xmlns="http://www.w3.org/2000/svg" xmlns:xlink="http://www.w3.org/1999/xlink" x="0px" y="0px"
	 viewBox="0 0 74 65" style="enable-background:new 0 0 74 65;" xml:space="preserve">
<style type="text/css">
	.st0{fill:#DBD2C6;stroke:#000000;stroke-width:3;stroke-linecap:round;stroke-linejoin:round;stroke-miterlimit:10;}
	.st1{fill:#6A6AB0;stroke:#000000;stroke-width:3;stroke-linecap:round;stroke-linejoin:round;stroke-miterlimit:10;}
	.st2{fill:none;stroke:#FFFFFF;stroke-width:3;stroke-linecap:round;stroke-linejoin:round;stroke-miterlimit:10;}
	.st3{fill:#FFAC53;stroke:#000000;stroke-width:3;stroke-linecap:round;stroke-linejoin:round;stroke-miterlimit:10;}
	.st4{fill:#E94B4B;stroke:#000000;stroke-width:3;stroke-linecap:round;stroke-linejoin:round;stroke-miterlimit:10;}
</style>
<g>
	<g>
		<g>
			<g>
				<path class="st0" d="M1118.41-2.12c-11.86-0.82-22.59,4.32-29.49,12.71c-3.75,4.55-9.32,7.21-15.22,7.21H937.18
					c-5.39,0-10.47-2.29-14.27-6.12c-5.44-5.48-12.96-8.88-21.27-8.88c-8.31,0-15.84,3.4-21.27,8.88c-3.8,3.83-8.88,6.12-14.27,6.12
					H721.05c-5.39,0-10.47-2.29-14.27-6.12c-5.44-5.48-12.96-8.88-21.27-8.88c-8.31,0-15.84,3.4-21.27,8.88
					c-3.8,3.83-8.88,6.12-14.27,6.12H504.93c-5.39,0-10.47-2.29-14.27-6.12c-5.44-5.48-12.96-8.88-21.27-8.88
					c-8.31,0-15.84,3.4-21.27,8.88c-3.8,3.83-8.88,6.12-14.27,6.12H288.81c-5.39,0-10.47-2.29-14.27-6.12
					c-5.44-5.48-12.96-8.88-21.27-8.88c-8.31,0-15.84,3.4-21.27,8.88c-3.8,3.83-8.88,6.12-14.27,6.12H72.69
					c-5.39,0-10.47-2.29-14.27-6.12c-5.44-5.48-12.96-8.88-21.27-8.88s-15.84,3.4-21.27,8.88c-3.8,3.83-8.88,6.12-14.27,6.12
					h-145.04c-5.25,0-10.33-2.06-13.98-5.83c-5.9-6.1-14.35-9.72-23.62-9.1c-14.86,1-26.91,13.08-27.87,27.94
					c-1.13,17.44,12.73,31.99,29.94,31.99c8.31,0,15.84-3.4,21.27-8.88c3.8-3.83,8.88-6.12,14.27-6.12H1.6
					c5.39,0,10.47,2.29,14.27,6.12c5.44,5.48,12.96,8.88,21.27,8.88s15.84-3.4,21.27-8.88c3.8-3.83,8.88-6.12,14.27-6.12h145.03
					c5.39,0,10.47,2.29,14.27,6.12c5.44,5.48,12.96,8.88,21.27,8.88c8.31,0,15.84-3.4,21.27-8.88c3.8-3.83,8.88-6.12,14.27-6.12
					h145.03c5.39,0,10.47,2.29,14.27,6.12c5.44,5.48,12.96,8.88,21.27,8.88c8.31,0,15.84-3.4,21.27-8.88
					c3.8-3.83,8.88-6.12,14.27-6.12h145.03c5.39,0,10.47,2.29,14.27,6.12c5.44,5.48,12.96,8.88,21.27,8.88
					c8.31,0,15.84-3.4,21.27-8.88c3.8-3.83,8.88-6.12,14.27-6.12h145.03c5.39,0,10.47,2.29,14.27,6.12
					c5.44,5.48,12.96,8.88,21.27,8.88c8.31,0,15.84-3.4,21.27-8.88c3.8-3.83,8.88-6.12,14.27-6.12h136.42
					c5.86,0,11.51,2.51,15.2,7.05c6.42,7.9,16.21,12.95,27.16,12.95c20.14,0,36.36-17.1,34.91-37.55
					C1149.64,13,1135.66-0.94,1118.41-2.12z"/>
				<g>
					<path class="st1" d="M-178.98,52.79L-178.98,52.79c-11.05,0-20-8.95-20-20v0c0-11.05,8.95-20,20-20h0c11.05,0,20,8.95,20,20v0
						C-158.98,43.84-167.93,52.79-178.98,52.79z"/>
					<path class="st2" d="M-178.98,17.79c8.27,0,15,6.73,15,15"/>
					<path class="st1" d="M37.14,52.79L37.14,52.79c-11.05,0-20-8.95-20-20v0c0-11.05,8.95-20,20-20h0c11.05,0,20,8.95,20,20v0
						C57.14,43.84,48.19,52.79,37.14,52.79z"/>
					<path class="st2" d="M37.14,17.79c8.27,0,15,6.73,15,15"/>
					<path class="st1" d="M253.27,52.79L253.27,52.79c-11.05,0-20-8.95-20-20v0c0-11.05,8.95-20,20-20h0c11.05,0,20,8.95,20,20v0
						C273.27,43.84,264.31,52.79,253.27,52.79z"/>
					<path class="st2" d="M253.27,17.79c8.27,0,15,6.73,15,15"/>
					<path class="st1" d="M469.39,52.79L469.39,52.79c-11.05,0-20-8.95-20-20v0c0-11.05,8.95-20,20-20h0c11.05,0,20,8.95,20,20v0
						C489.39,43.84,480.43,52.79,469.39,52.79z"/>
					<path class="st2" d="M469.39,17.79c8.27,0,15,6.73,15,15"/>
					<path class="st1" d="M685.51,52.79L685.51,52.79c-11.05,0-20-8.95-20-20v0c0-11.05,8.95-20,20-20l0,0c11.05,0,20,8.95,20,20v0
						C705.51,43.84,696.55,52.79,685.51,52.79z"/>
					<path class="st2" d="M685.51,17.79c8.27,0,15,6.73,15,15"/>
					<path class="st3" d="M901.63,52.79L901.63,52.79c-11.05,0-20-8.95-20-20v0c0-11.05,8.95-20,20-20h0c11.05,0,20,8.95,20,20v0
						C921.63,43.84,912.68,52.79,901.63,52.79z"/>
					<path class="st2" d="M901.63,17.79c8.27,0,15,6.73,15,15"/>
					<path class="st4" d="M1115.95,57.79L1115.95,57.79c-13.81,0-25-11.19-25-25v0c0-13.81,11.19-25,25-25l0,0
						c13.81,0,25,11.19,25,25v0C1140.95,46.6,1129.76,57.79,1115.95,57.79z"/>
					<path class="st2" d="M1115.95,12.79c11.03,0,20,8.97,20,20"/>
					<g>
						<text transform="matrix(1 0 0 1 -189.2382 -16.9351)" style="font-family:'SFPro-Light'; font-size:40px;">1</text>
					</g>
					<g>
						<text transform="matrix(1 0 0 1 26.5842 -16.9351)" style="font-family:'SFPro-Light'; font-size:40px;">2</text>
					</g>
					<g>
						<text transform="matrix(1 0 0 1 242.405 -16.9351)" style="font-family:'SFPro-Light'; font-size:40px;">3</text>
					</g>
					<g>
						<text transform="matrix(1 0 0 1 458.2273 -16.9351)" style="font-family:'SFPro-Light'; font-size:40px;">4</text>
					</g>
					<g>
						<text transform="matrix(1 0 0 1 674.05 -16.9351)" style="font-family:'SFPro-Light'; font-size:40px;">5</text>
					</g>
					<g>
						<text transform="matrix(1 0 0 1 889.8718 -16.9351)" style="font-family:'SFPro-Light'; font-size:40px;">6</text>
					</g>
					<g>
						<text transform="matrix(1 0 0 1 1105.6936 -16.9351)" style="font-family:'SFPro-Light'; font-size:40px;">7</text>
					</g>
				</g>
			</g>
		</g>
	</g>
</g>
</svg>
