<svg width="290" height="332" viewBox="0 0 290 332" fill="none" xmlns="http://www.w3.org/2000/svg">
<path d="M270.2 121.744C261.842 121.744 255.06 128.507 255.037 136.864L255.015 144.626C254.992 153.029 261.797 159.853 270.2 159.853C280.414 159.853 288.694 151.574 288.694 141.36V140.237C288.694 130.023 280.414 121.744 270.2 121.744Z" fill="#835BB4" stroke="black" stroke-linecap="round" stroke-linejoin="round"/>
<path d="M264.079 130.311C262.583 125.649 261.697 120.803 261.765 115.908L262.587 56.5625V47.3184C262.587 21.7852 241.889 1.0874 216.356 1.0874H47.152C21.5274 1.0874 0.788978 21.9274 0.921037 47.552L1.01246 50.5183C1.01246 195.85 -7.10414 222.78 150.326 222.78C279.346 222.78 275.491 165.866 264.079 130.311Z" fill="#835BB4" stroke="black" stroke-linecap="round" stroke-linejoin="round"/>
<path d="M49.7015 159.853H32.6252C22.4109 159.853 14.1318 151.574 14.1318 141.36V140.238C14.1318 130.023 22.4109 121.744 32.6252 121.744H49.7015" fill="#835BB4"/>
<path d="M49.7015 159.853H32.6252C22.4109 159.853 14.1318 151.574 14.1318 141.36V140.238C14.1318 130.023 22.4109 121.744 32.6252 121.744H49.7015" stroke="black" stroke-linecap="round" stroke-linejoin="round"/>
<path d="M43.9878 338.54V275.146C43.9878 261.092 55.3805 249.699 69.4346 249.699H173.746C187.8 249.699 199.193 261.092 199.193 275.146V338.54" fill="#835BB4"/>
<path d="M43.9878 338.54V275.146C43.9878 261.092 55.3805 249.699 69.4346 249.699H173.746C187.8 249.699 199.193 261.092 199.193 275.146V338.54" stroke="black" stroke-linecap="round" stroke-linejoin="round"/>
<path d="M91.1403 279.445V326.869C91.1403 333.938 85.4103 339.668 78.3419 339.668V339.668C71.2735 339.668 65.5435 333.938 65.5435 326.869V279.445" fill="#835BB4"/>
<path d="M91.1403 279.445V326.869C91.1403 333.938 85.4103 339.668 78.3419 339.668V339.668C71.2735 339.668 65.5435 333.938 65.5435 326.869V279.445" stroke="black" stroke-linecap="round" stroke-linejoin="round"/>
<path d="M156.903 137.195C171.501 137.195 183.336 122.504 183.336 104.383C183.336 86.2616 171.501 71.5713 156.903 71.5713C142.305 71.5713 130.471 86.2616 130.471 104.383C130.471 122.504 142.305 137.195 156.903 137.195Z" fill="#75539E" stroke="black" stroke-linecap="round" stroke-linejoin="round"/>
<path d="M240.07 137.195C254.668 137.195 266.503 122.504 266.503 104.383C266.503 86.2616 254.668 71.5713 240.07 71.5713C225.472 71.5713 213.638 86.2616 213.638 104.383C213.638 122.504 225.472 137.195 240.07 137.195Z" fill="#75539E" stroke="black" stroke-linecap="round" stroke-linejoin="round"/>
</svg>
