<svg width="52" height="52" viewBox="0 0 52 52" fill="none" xmlns="http://www.w3.org/2000/svg">
<path d="M41.0049 1H10.9951C5.47496 1 1 5.47496 1 10.9951V41.0049C1 46.525 5.47496 51 10.9951 51H41.0049C46.525 51 51 46.525 51 41.0049V10.9951C51 5.47496 46.525 1 41.0049 1Z" fill="white" stroke="black" stroke-linecap="round" stroke-linejoin="round"/>
<path d="M34.0767 8.51465H17.9232C14.9472 8.51465 12.5347 10.9272 12.5347 13.9032V30.0567C12.5347 33.0327 14.9472 35.4452 17.9232 35.4452H34.0767C37.0527 35.4452 39.4652 33.0327 39.4652 30.0567V13.9032C39.4652 10.9272 37.0527 8.51465 34.0767 8.51465Z" fill="#64D1ED" stroke="black" stroke-linecap="round" stroke-linejoin="round"/>
<path d="M32.5371 40.2474H19.4506C17.0434 40.2474 15.0884 42.2025 15.0884 44.6096V50.9879C15.1861 50.9879 15.2717 51.0001 15.3695 51.0001H36.6304C36.7282 51.0001 36.8138 51.0001 36.9115 50.9879V44.6096C36.9115 42.2025 34.9565 40.2474 32.5493 40.2474H32.5371Z" fill="#64D1ED" stroke="black" stroke-linecap="round" stroke-linejoin="round"/>
</svg>
